<?xml version="1.0" standalone="no"?>
<!DOCTYPE svg PUBLIC "-//W3C//DTD SVG 20010904//EN"
 "http://www.w3.org/TR/2001/REC-SVG-20010904/DTD/svg10.dtd">
<svg version="1.0" xmlns="http://www.w3.org/2000/svg"
 width="260.000000pt" height="260.000000pt" viewBox="0 0 260.000000 260.000000"
 preserveAspectRatio="xMidYMid meet">
<metadata>
Created by potrace 1.11, written by Peter Selinger 2001-2013
</metadata>
<g transform="translate(0.000000,260.000000) scale(0.100000,-0.100000)"
fill="#000000" stroke="none">
<path d="M1185 2588 c-87 -15 -259 -87 -305 -126 -8 -7 -34 -25 -57 -40 -75
-49 -128 -105 -165 -174 -20 -39 -22 -56 -21 -173 1 -71 4 -148 7 -170 3 -22
8 -63 10 -92 2 -28 7 -60 10 -71 6 -17 11 -57 19 -137 1 -11 -2 -21 -6 -22 -5
0 -22 -14 -38 -29 -25 -24 -28 -33 -24 -71 2 -23 9 -51 14 -61 6 -11 8 -22 4
-25 -3 -4 0 -13 7 -22 7 -8 9 -15 6 -15 -4 0 -1 -10 6 -22 7 -14 13 -67 14
-133 2 -93 7 -150 14 -150 1 0 3 -7 5 -15 2 -8 11 -33 21 -55 10 -22 19 -43
20 -47 1 -5 2 -9 4 -10 1 -2 3 -11 5 -20 2 -9 14 -41 28 -71 22 -48 23 -81 3
-78 -31 4 -51 -5 -91 -39 -25 -22 -52 -40 -59 -40 -23 0 -127 -50 -162 -78
-18 -14 -39 -40 -45 -57 -17 -42 -45 -66 -119 -103 -19 -9 -60 -33 -90 -53
-30 -19 -73 -43 -95 -53 -47 -23 -101 -71 -88 -79 6 -4 25 5 44 19 19 15 48
33 64 40 17 8 46 24 65 36 79 48 143 78 153 71 6 -4 7 -1 2 7 -4 7 -2 16 6 21
20 13 35 11 22 -2 -6 -6 -9 -18 -6 -27 5 -12 1 -14 -20 -8 -21 5 -25 3 -21 -9
3 -8 10 -13 14 -10 11 7 6 -22 -5 -32 -4 -4 -5 -3 -2 3 13 23 -17 34 -42 15
-18 -14 -21 -20 -11 -26 9 -6 11 -4 5 5 -5 9 -4 11 4 6 6 -4 9 -11 6 -16 -3
-4 1 -11 7 -13 10 -4 10 -6 0 -6 -7 -1 -10 -5 -7 -11 3 -6 -1 -7 -10 -3 -12 4
-13 8 -5 13 8 5 7 9 -5 13 -9 4 -13 3 -10 -3 3 -6 0 -10 -7 -10 -7 -1 -3 -6
10 -13 12 -7 20 -16 17 -19 -3 -3 5 -4 18 -3 20 2 23 -1 22 -29 0 -17 -4 -37
-9 -44 -5 -8 -4 -18 3 -25 7 -7 12 -6 17 6 3 9 10 17 16 17 5 0 7 -4 4 -9 -3
-4 8 -7 24 -5 19 2 30 -1 30 -9 0 -9 3 -8 9 1 7 11 9 11 14 -2 4 -9 13 -13 22
-10 8 3 15 1 15 -6 0 -6 5 -8 10 -5 6 3 10 2 10 -2 0 -5 14 -8 30 -7 17 1 30
-3 30 -8 0 -6 5 -6 14 1 10 8 16 9 21 1 7 -11 45 -14 46 -2 0 4 2 16 4 27 3
11 7 68 10 126 3 58 8 125 13 150 4 24 7 59 7 77 -1 17 1 32 4 32 3 0 6 20 5
45 0 25 3 45 7 45 5 0 6 7 3 15 -4 8 -1 15 6 15 6 0 9 4 6 8 -3 5 8 16 25 26
22 13 29 14 29 4 0 -8 5 -6 11 5 6 9 14 15 20 12 13 -9 11 -55 -2 -55 -6 0 -9
-6 -6 -14 3 -7 0 -25 -7 -38 -9 -17 -10 -31 -4 -42 5 -9 5 -16 0 -16 -5 0 -9
-43 -9 -95 1 -52 5 -95 9 -95 5 0 4 -9 -2 -20 -6 -11 -7 -20 -2 -20 5 0 10
-33 11 -72 2 -40 4 -84 6 -98 1 -14 3 -31 4 -38 0 -7 5 -11 9 -8 4 2 22 -2 40
-10 18 -8 47 -21 65 -28 17 -8 36 -11 40 -7 5 5 -4 37 -18 72 -15 35 -28 69
-29 74 -6 27 -30 91 -37 101 -5 6 -7 13 -4 16 3 3 -1 18 -10 34 -8 16 -15 35
-15 42 0 7 -6 25 -14 40 -7 15 -16 41 -20 57 -11 44 8 21 35 -45 27 -65 77
-146 121 -196 29 -33 30 -37 20 -72 -14 -44 -3 -54 41 -41 28 8 35 5 70 -29
46 -44 74 -99 58 -115 -6 -6 -11 -15 -11 -19 0 -4 60 -8 133 -8 100 0 134 3
135 13 4 45 16 85 33 103 29 31 88 61 97 49 7 -11 52 -19 52 -9 0 3 -6 17 -14
33 -14 25 -13 29 12 57 76 84 207 284 185 284 -3 0 0 7 7 15 6 8 9 18 6 23 -3
5 1 20 9 35 8 15 9 27 4 27 -6 0 -6 6 0 18 5 9 9 21 9 27 0 5 5 11 10 13 12 4
10 -78 -2 -97 -6 -9 -5 -12 1 -8 6 4 13 1 15 -6 7 -16 -2 -38 -12 -32 -4 3 -6
-5 -2 -17 4 -15 2 -19 -8 -13 -10 6 -10 4 -3 -10 8 -13 5 -30 -12 -64 -13 -25
-31 -68 -41 -96 -17 -45 -127 -251 -160 -300 -30 -42 -22 -45 127 -45 120 0
140 2 136 15 -4 8 -2 17 2 20 5 2 7 19 6 35 -2 23 1 30 11 26 8 -3 14 -1 14 4
0 6 -7 10 -15 10 -8 0 -15 5 -15 11 0 5 5 7 12 3 7 -5 8 -3 3 7 -11 17 -14 48
-6 54 4 2 6 23 6 47 0 24 5 46 10 50 6 5 6 8 -1 8 -8 0 -9 13 -4 40 4 22 5 40
1 40 -3 0 -7 30 -8 68 -2 73 -11 197 -14 197 -1 0 -3 9 -4 20 -1 11 -6 37 -10
57 -5 29 -4 36 7 34 15 -2 76 -46 64 -46 -4 0 -2 -9 4 -19 5 -11 12 -35 15
-53 2 -18 10 -51 15 -73 6 -22 12 -47 12 -55 1 -8 6 -18 12 -22 7 -5 7 -8 -2
-8 -7 0 -11 -4 -8 -8 6 -10 17 -65 21 -107 2 -16 6 -50 10 -75 13 -85 13 -145
1 -152 -8 -6 -8 -8 1 -8 6 0 10 -11 8 -25 -3 -31 3 -31 36 -1 24 22 82 57 94
56 5 -1 72 47 85 60 14 14 89 47 84 37 -3 -7 1 -4 9 5 8 10 25 20 38 22 13 3
25 5 27 5 1 1 -3 11 -9 24 -6 12 -8 19 -4 15 11 -10 36 11 29 24 -3 5 -13 4
-22 -4 -15 -12 -16 -11 -3 5 11 14 17 15 30 5 31 -25 60 -38 65 -29 6 9 -93
101 -108 101 -10 0 -137 91 -163 117 -26 26 -45 39 -98 67 -11 6 -35 21 -52
34 -18 12 -46 28 -63 33 -16 6 -30 14 -30 17 0 12 -47 62 -58 62 -18 0 -43 31
-35 43 4 7 8 14 8 17 0 3 12 41 27 85 62 188 78 271 62 333 -14 55 -14 63 8
112 26 61 40 109 33 120 -3 5 -2 10 3 10 9 0 10 67 1 72 -33 21 -47 24 -67 17
-19 -7 -22 -6 -18 9 14 47 35 141 41 177 3 23 8 52 10 65 6 27 17 181 19 245
0 34 -7 65 -41 175 -2 8 -4 16 -3 18 3 6 -54 77 -87 109 -18 17 -54 41 -80 53
-27 12 -58 27 -71 33 -12 6 -44 30 -70 55 -47 43 -106 79 -146 89 -35 8 -238
9 -281 1z m200 -33 c23 -5 27 -4 15 5 -12 9 -9 10 14 8 16 -2 31 -8 33 -14 2
-7 -4 -11 -14 -10 -13 1 -18 -6 -17 -26 0 -16 -4 -24 -10 -20 -6 3 -17 7 -26
8 -27 3 -45 9 -53 19 -5 6 -7 4 -4 -5 2 -8 10 -14 16 -12 6 1 11 -3 11 -9 0
-5 4 -8 9 -5 19 12 18 -20 -1 -47 -18 -25 -22 -27 -42 -14 -37 24 -56 28 -56
11 0 -8 4 -13 8 -10 11 6 56 -25 60 -41 1 -7 -5 -13 -15 -13 -9 0 -13 -3 -10
-7 4 -3 -2 -12 -12 -19 -16 -11 -28 -10 -77 7 -33 11 -63 24 -68 29 -5 5 -16
6 -25 3 -21 -8 -12 1 16 16 18 9 22 9 19 -1 -1 -7 -1 -10 1 -6 3 4 5 11 5 15
1 17 36 32 62 27 15 -2 26 0 26 6 0 6 -4 8 -10 5 -5 -3 -10 -1 -10 6 0 6 -8 9
-18 7 -10 -3 -23 1 -30 9 -7 7 -17 11 -23 8 -14 -9 -24 24 -11 37 8 8 9 5 5
-10 -4 -17 -1 -20 19 -18 12 2 37 10 54 19 17 9 34 13 38 10 3 -4 6 -4 6 -1 0
3 -8 12 -17 19 -9 8 -14 9 -10 3 4 -7 0 -14 -8 -17 -9 -4 -12 -1 -8 9 4 12 -2
14 -38 9 -23 -3 -40 -3 -37 0 3 4 23 8 44 11 21 3 40 6 42 9 5 5 110 -2 147
-10z m129 -18 c16 -12 16 -13 -3 -13 -11 0 -18 3 -15 7 2 4 -4 10 -13 12 -14
4 -14 5 -2 6 8 0 23 -5 33 -12z m-304 -17 c0 -5 -5 -10 -11 -10 -5 0 -7 5 -4
10 3 6 8 10 11 10 2 0 4 -4 4 -10z m-274 -74 c-1 -8 -14 -25 -29 -36 -15 -12
-32 -31 -39 -43 -10 -20 -10 -21 5 -8 10 7 18 11 18 7 1 -3 2 -12 3 -18 1 -7
10 -12 19 -10 12 2 6 -9 -19 -32 -21 -20 -41 -36 -44 -36 -3 0 -14 -16 -24
-35 -20 -37 -36 -46 -31 -17 2 9 4 27 4 39 1 12 12 35 26 51 15 17 23 38 20
51 -2 11 0 21 5 21 5 0 12 9 15 20 4 12 18 23 35 27 16 3 29 8 28 12 -1 11 2
21 6 21 2 0 3 -7 2 -14z m224 0 c0 -2 -8 -10 -17 -17 -16 -13 -17 -12 -4 4 13
16 21 21 21 13z m560 -48 c0 -6 -6 -5 -15 2 -8 7 -15 14 -15 16 0 2 7 1 15 -2
8 -4 15 -11 15 -16z m43 -19 l22 -21 -22 11 c-12 6 -25 16 -28 21 -11 17 5 11
28 -11z m-817 -6 c-2 -10 -7 -18 -12 -18 -5 0 -14 -3 -19 -7 -6 -4 -11 2 -12
12 -1 12 3 17 12 14 7 -3 16 -1 20 5 9 16 14 13 11 -6z m301 -36 c6 0 14 -8
16 -18 3 -10 2 -17 -2 -16 -3 1 -7 -1 -8 -6 -2 -4 -15 -18 -30 -31 -24 -21
-29 -22 -52 -10 -14 8 -31 14 -37 14 -6 0 -17 6 -23 14 -9 11 -8 18 4 30 9 9
13 21 9 27 -4 8 -3 9 4 5 7 -4 12 -1 12 7 0 13 6 13 48 0 26 -8 52 -15 59 -16z
m97 25 c3 -5 -1 -9 -9 -9 -8 0 -12 4 -9 9 3 4 7 8 9 8 2 0 6 -4 9 -8z m386 0
c0 -5 18 -15 40 -22 22 -7 40 -17 40 -22 0 -5 4 -7 9 -4 5 3 15 -1 22 -10 12
-15 10 -15 -23 -1 -20 8 -38 14 -40 11 -2 -2 -20 10 -39 26 -19 16 -28 29 -21
30 6 0 12 -4 12 -8z m-783 -67 c0 -8 -4 -12 -9 -9 -4 3 -8 -2 -8 -11 0 -10 5
-13 12 -9 7 4 8 3 4 -5 -4 -6 -12 -9 -17 -6 -13 9 -11 43 4 48 6 3 12 6 13 6
0 1 1 -6 1 -14z m-33 -37 c6 -35 -75 -145 -93 -125 -21 26 6 95 50 130 19 14
34 25 36 24 1 -1 4 -14 7 -29z m924 -5 c20 -19 30 -31 22 -26 -30 16 -44 11
-21 -7 l25 -18 -26 5 c-19 4 -25 10 -23 24 2 10 -1 19 -6 19 -6 0 -8 4 -4 9 3
5 0 13 -6 17 -9 5 -10 -1 -5 -20 4 -16 2 -26 -4 -26 -6 0 -8 5 -5 10 3 6 2 10
-4 10 -6 0 -7 7 -4 17 5 12 3 14 -7 8 -8 -5 -11 -4 -7 2 11 18 37 10 75 -24z
m-588 13 c0 -2 -7 -7 -16 -10 -8 -3 -12 -2 -9 4 6 10 25 14 25 6z m11 -19
c-10 -9 -11 -8 -5 6 3 10 9 15 12 12 3 -3 0 -11 -7 -18z m-101 0 c8 -1 25 -12
38 -24 22 -20 23 -21 3 -16 -13 3 -21 1 -21 -6 0 -7 4 -10 9 -6 5 3 12 1 16
-4 3 -6 -6 -8 -21 -5 -23 4 -25 3 -15 -10 11 -13 5 -14 -46 -9 -32 3 -59 7
-61 9 -2 1 2 13 9 26 13 23 15 29 18 47 0 5 13 7 29 5 15 -3 34 -6 42 -7z
m-214 -69 c4 -6 3 -8 -3 -5 -6 4 -13 0 -17 -8 -3 -8 -1 -15 4 -15 6 0 10 -5
10 -11 0 -5 -6 -7 -12 -3 -10 6 -10 4 -2 -7 8 -10 4 -26 -16 -63 -16 -28 -30
-44 -34 -37 -4 6 -4 16 -1 21 4 6 1 9 -6 8 -11 -3 -14 13 -10 55 2 18 53 77
67 77 7 0 16 -5 20 -12z m886 -6 c8 -6 19 -8 23 -4 5 4 5 1 1 -5 -4 -7 -3 -13
2 -13 4 0 8 -13 8 -30 0 -23 -2 -27 -13 -18 -7 6 -11 18 -8 28 3 11 0 17 -10
17 -9 0 -14 -6 -11 -14 7 -18 2 -16 -19 7 -18 20 -18 21 1 15 18 -6 18 -6 2 8
-10 8 -18 17 -18 20 0 9 27 2 42 -11z m-692 -29 c8 -3 22 -7 30 -9 15 -3 34
-23 81 -84 23 -31 29 -34 50 -24 13 6 51 23 84 39 73 33 90 37 185 39 85 2
148 -14 200 -48 41 -27 125 -152 107 -160 -7 -2 -2 -5 11 -5 13 -1 20 -5 17
-11 -3 -5 0 -10 7 -11 10 0 10 -2 -1 -6 -11 -4 -11 -7 0 -13 13 -8 21 -50 10
-50 -4 0 -7 -12 -7 -27 -2 -39 -10 -84 -21 -113 -5 -14 -9 -32 -8 -40 1 -8 -3
-23 -8 -33 -4 -10 -10 -28 -13 -40 -2 -12 -7 -33 -10 -47 -3 -14 -7 -50 -9
-80 -7 -122 -20 -160 -78 -225 l-35 -39 35 -24 c19 -13 32 -26 30 -29 -3 -2
-16 3 -30 12 -23 14 -61 20 -113 17 -27 -2 -74 -49 -67 -68 4 -11 7 -11 20 1
17 18 37 19 64 5 26 -15 24 -49 -3 -59 -26 -9 -50 -3 -131 33 -32 15 -69 27
-83 28 -24 2 -33 21 -15 32 17 11 -9 80 -33 89 -20 8 -20 2 0 -28 16 -24 12
-65 -6 -65 -5 0 -7 6 -4 14 4 10 -2 12 -20 9 -14 -3 -26 -9 -26 -13 0 -7 -26
-18 -55 -24 -5 -2 -26 7 -45 18 -19 11 -37 19 -40 17 -29 -19 -43 -22 -51 -10
-4 8 -5 16 -1 19 13 9 32 50 24 50 -33 0 -59 -62 -36 -84 8 -8 14 -17 14 -19
0 -4 -119 -65 -140 -72 -3 -1 -18 -7 -34 -14 -26 -10 -32 -9 -49 7 -25 26 -15
58 21 65 15 3 35 1 45 -4 35 -19 36 3 2 36 -49 49 -99 46 -158 -10 -16 -15
-31 -25 -33 -22 -3 3 15 25 40 49 l46 43 -44 45 c-50 53 -83 115 -91 174 -17
129 -17 127 -41 191 -14 40 -18 61 -18 113 -1 28 -5 52 -10 52 -5 0 -7 3 -3 6
3 3 2 17 -3 30 -6 16 -6 24 1 24 6 0 7 6 2 13 -13 21 -11 61 4 86 12 19 17 21
24 10 6 -10 9 -7 9 11 0 23 19 67 20 46 0 -6 6 -1 14 9 8 11 12 24 9 29 -3 5
0 7 8 4 8 -3 19 -15 25 -27 17 -33 70 -76 106 -87 64 -20 140 17 151 72 5 27
0 29 -26 10 -10 -8 -27 -12 -38 -9 -23 6 -61 52 -53 64 3 5 1 9 -4 9 -6 0 -12
-7 -16 -15 -3 -8 -1 -15 4 -15 6 0 10 -6 10 -14 0 -17 23 -36 47 -41 10 -2 20
-4 22 -4 2 -1 -2 -7 -8 -15 -18 -22 -44 -9 -69 34 -18 31 -20 44 -12 65 5 14
14 23 20 20 5 -3 10 2 10 12 1 23 29 56 62 74 29 15 103 22 128 12z m678 -71
c-11 -13 -10 -15 6 -9 26 10 45 -9 40 -39 -3 -18 -1 -23 7 -18 8 5 9 3 4 -6
-6 -10 -12 -7 -26 11 -10 13 -16 26 -13 28 2 2 -6 9 -18 15 -28 14 -34 46 -7
39 16 -5 17 -8 7 -21z m-1120 -534 c9 -9 9 -15 -1 -27 -8 -9 -8 -12 -1 -8 12
7 21 -14 30 -69 3 -18 1 -34 -3 -37 -5 -3 -10 10 -11 30 -3 44 -42 89 -42 48
0 -8 4 -15 8 -15 5 0 9 -6 10 -12 17 -159 1 -179 -34 -45 -1 4 -3 10 -4 15 -1
4 -2 11 -1 16 1 4 -3 13 -8 20 -13 15 -7 61 9 81 15 18 32 19 48 3z m1252 -9
c0 -5 5 -7 10 -4 6 4 10 -5 8 -24 -1 -17 -6 -31 -11 -31 -4 0 -5 -4 -2 -10 6
-10 -32 -127 -47 -145 -5 -5 -7 11 -6 38 2 26 7 47 11 47 5 0 5 4 2 10 -3 5
-1 18 4 29 8 15 7 21 -7 27 -9 4 -24 6 -32 5 -13 -2 -13 -1 0 8 8 6 11 11 6
11 -5 0 1 11 14 25 24 26 50 33 50 14z m-48 -78 c-5 -3 -8 -14 -6 -23 1 -10
-1 -20 -5 -22 -4 -3 -6 9 -5 27 2 40 2 40 15 31 7 -4 7 -9 1 -13z m-85 -366
c0 -8 -4 -12 -9 -9 -5 3 -6 10 -3 15 9 13 12 11 12 -6z m-366 -68 c9 -7 16
-16 17 -22 0 -5 6 -11 14 -13 9 -2 8 0 -2 7 -12 8 -12 11 5 17 11 5 20 3 23
-4 2 -7 8 -10 13 -6 5 3 9 0 9 -6 0 -7 9 -9 23 -5 22 7 22 7 2 -8 -11 -9 -17
-19 -12 -23 4 -4 7 -2 7 4 0 17 31 14 55 -4 l20 -15 -20 -12 c-45 -27 -100
-17 -109 18 -7 27 -23 34 -23 10 0 -8 4 -15 9 -15 4 0 8 -4 8 -9 0 -17 -46 -5
-70 17 -13 12 -30 22 -37 22 -7 0 -13 5 -13 11 0 5 4 7 10 4 6 -3 7 1 4 9 -3
9 -1 16 5 16 6 0 11 -9 11 -19 0 -11 5 -23 10 -26 12 -8 13 -3 1 28 -14 37 7
49 40 24z m-241 -14 c0 -16 -40 -72 -40 -57 0 5 -7 0 -16 -11 -14 -19 -15 -18
-10 18 3 21 9 44 15 50 15 19 51 19 51 0z m-73 -8 c0 -8 -4 -15 -8 -15 -5 0
-6 -6 -3 -14 3 -8 -8 -23 -27 -37 -30 -21 -33 -21 -45 -5 -11 16 -13 16 -22 0
-10 -18 -62 -29 -62 -13 0 6 13 18 30 27 16 9 30 21 30 26 0 5 7 3 15 -4 13
-11 18 -10 32 9 8 12 25 26 37 31 11 5 21 9 22 9 0 1 1 -6 1 -14z m202 -49
c-2 -2 -15 -9 -29 -16 -23 -12 -24 -12 -11 3 7 10 20 17 29 17 8 0 13 -2 11
-4z m45 -50 c16 -3 31 -8 35 -12 3 -4 -2 -4 -11 -1 -10 4 -18 2 -18 -4 0 -12
-67 -42 -79 -35 -4 3 -24 6 -44 8 -21 1 -37 6 -37 11 0 5 -7 6 -16 3 -8 -3
-12 -2 -9 3 3 5 -3 12 -12 14 -15 4 -15 5 2 5 11 1 31 -5 45 -13 23 -12 26
-12 38 8 11 19 12 19 10 3 -2 -10 3 -21 11 -24 8 -3 11 0 7 6 -3 6 -2 13 3 17
6 3 8 -3 6 -15 -2 -11 0 -20 6 -20 5 0 9 7 9 16 0 13 3 14 14 5 10 -9 17 -7
27 6 12 15 12 16 -3 10 -10 -3 -18 -2 -18 4 0 6 -5 7 -12 3 -7 -4 -8 -3 -4 5
4 6 11 9 15 7 4 -3 20 -7 35 -10z m141 -115 c-3 -5 -1 -12 5 -16 6 -4 8 -11 5
-16 -4 -5 -2 -9 4 -9 5 0 7 -10 5 -22 -3 -13 -6 -28 -6 -35 -1 -6 -8 -8 -17
-5 -14 5 -14 3 -2 -11 9 -11 10 -17 2 -17 -6 0 -14 0 -18 0 -4 0 -7 10 -7 23
0 12 6 22 13 22 8 0 16 6 19 13 2 6 -1 12 -8 12 -6 0 -8 -6 -4 -12 5 -9 4 -10
-4 -3 -6 6 -13 23 -16 39 -4 22 -2 26 6 18 17 -17 33 -15 19 1 -6 8 -8 17 -4
20 9 10 15 8 8 -2z m42 -23 c-3 -8 -6 -5 -6 6 -1 11 2 17 5 13 3 -3 4 -12 1
-19z m-574 -16 c-6 -15 -5 -16 12 -2 17 13 18 13 13 0 -8 -21 42 -21 59 0 10
12 11 11 7 -10 -2 -14 -2 -19 2 -12 3 6 10 12 15 12 6 0 7 -5 4 -11 -4 -6 0
-9 11 -7 16 2 18 -3 16 -32 -2 -19 -13 -44 -24 -55 l-20 -20 7 24 c6 20 4 23
-11 19 -16 -4 -19 1 -19 31 0 28 -4 36 -20 39 -15 2 -17 1 -6 -6 10 -7 11 -15
3 -27 -9 -17 -10 -17 -16 3 -4 12 -13 22 -21 22 -13 0 -25 21 -25 46 0 9 4 13
10 9 5 -3 6 -13 3 -23z m57 14 c0 -3 -4 -8 -10 -11 -5 -3 -10 -1 -10 4 0 6 5
11 10 11 6 0 10 -2 10 -4z m436 -55 c-4 -6 -11 -9 -16 -6 -5 3 -12 0 -16 -6
-4 -7 -3 -9 2 -6 6 3 16 2 24 -4 9 -5 10 -9 3 -9 -6 0 -9 -9 -6 -22 3 -15 2
-19 -4 -11 -6 9 -12 7 -21 -7 -10 -16 -9 -18 3 -14 8 4 15 4 15 1 0 -3 -6 -7
-14 -10 -9 -4 -21 5 -31 20 -16 24 -16 25 3 19 13 -5 22 -1 26 10 5 14 4 15
-8 5 -11 -9 -15 -7 -19 8 -3 12 1 22 9 25 8 3 14 11 14 18 0 9 -3 8 -10 -2 -8
-13 -10 -12 -10 3 0 9 7 17 16 17 9 0 12 5 8 13 -4 6 3 2 16 -9 12 -12 19 -27
16 -33z m97 34 c-3 -9 -8 -14 -10 -11 -3 3 -2 9 2 15 9 16 15 13 8 -4z m-389
-30 c11 -8 17 -18 13 -21 -4 -4 -1 -14 6 -22 10 -13 9 -14 -2 -7 -10 5 -12 4
-7 -3 13 -21 26 -13 26 16 1 26 1 27 17 7 14 -18 15 -18 9 -2 -4 13 -2 17 6
14 7 -2 25 0 41 4 18 5 27 4 28 -4 7 -114 6 -126 -7 -131 -8 -3 -14 -1 -14 4
0 6 6 10 13 11 9 0 9 2 0 5 -7 3 -9 13 -6 22 4 13 2 12 -10 -3 -9 -11 -17 -15
-17 -9 0 7 -11 9 -25 6 -14 -2 -23 -8 -20 -11 2 -4 -2 -8 -8 -8 -8 0 -12 11
-11 28 2 27 -20 47 -31 29 -4 -6 0 -10 7 -10 9 0 9 -3 -2 -10 -11 -7 -11 -10
-2 -10 7 0 11 -4 8 -8 -7 -11 -51 -8 -51 4 0 5 -4 15 -9 23 -7 11 -10 11 -18
0 -8 -11 -9 -11 -6 -1 2 8 7 12 10 10 13 -6 37 36 27 47 -11 11 -12 25 -1 24
19 -3 25 2 12 11 -8 5 -10 10 -5 10 6 -1 19 -7 29 -15z m186 -10 c-7 -9 -10
-18 -6 -22 3 -3 6 -1 6 5 0 7 8 12 18 12 14 0 15 -2 2 -10 -12 -8 -12 -10 5
-10 14 0 16 -3 7 -9 -8 -4 -11 -19 -8 -35 3 -18 0 -29 -10 -33 -7 -3 -11 -9
-8 -14 3 -5 1 -9 -4 -9 -5 0 -12 9 -15 20 -3 11 0 20 6 20 7 0 5 5 -3 10 -17
10 -21 71 -5 82 18 13 28 8 15 -7z m-220 -29 c0 -3 -4 -8 -10 -11 -5 -3 -10
-1 -10 4 0 6 5 11 10 11 6 0 10 -2 10 -4z m-595 -46 c-3 -5 -12 -10 -18 -10
-7 0 -6 4 3 10 19 12 23 12 15 0z m1141 -12 c-3 -7 -9 -21 -12 -30 -4 -10 -10
-18 -15 -18 -5 0 -8 -3 -7 -7 6 -27 -43 -100 -108 -163 l-74 -71 -12 26 c-6
14 -15 25 -20 25 -5 0 -6 5 -3 10 3 6 2 10 -3 10 -5 0 -14 12 -21 26 -13 30
-3 49 32 60 25 8 100 56 105 67 2 4 9 7 16 7 6 0 34 16 61 34 53 37 70 44 61
24z m-1200 -30 c4 -7 3 -8 -4 -4 -16 10 -15 -7 1 -23 10 -11 8 -11 -10 0 -16
10 -19 16 -11 26 13 16 15 16 24 1z m388 -4 c3 -8 10 -13 16 -9 7 4 128 -68
169 -101 2 -2 -6 -15 -16 -31 -11 -15 -23 -37 -27 -48 -7 -18 -10 -17 -43 20
-53 59 -130 185 -114 185 5 0 12 -7 15 -16z m408 -13 c-4 -10 -7 -11 -10 -3
-2 7 -8 10 -13 6 -5 -3 -9 -1 -9 5 0 5 9 9 19 8 12 -1 17 -6 13 -16z m-852
-31 c0 -5 -5 -10 -11 -10 -5 0 -7 5 -4 10 3 6 8 10 11 10 2 0 4 -4 4 -10z m40
6 c0 -2 -8 -10 -17 -17 -16 -13 -17 -12 -4 4 13 16 21 21 21 13z m17 -21 c0
-8 -4 -12 -9 -9 -5 3 -6 10 -3 15 9 13 12 11 12 -6z m34 -8 c-10 -9 -11 -8 -5
6 3 10 9 15 12 12 3 -3 0 -11 -7 -18z m-104 -12 c0 -8 -4 -15 -9 -15 -5 0 -6
-4 -3 -10 3 -5 3 -16 -2 -22 -9 -16 -12 -30 -15 -85 -3 -41 -8 -50 -20 -38
-10 10 29 185 42 185 4 0 7 -7 7 -15z m1730 8 c-4 -3 -3 -11 2 -17 14 -18 31
-77 21 -71 -6 4 -10 12 -10 18 0 7 -6 24 -14 39 -13 24 -12 38 2 38 3 0 2 -3
-1 -7z m-1022 -102 c2 -12 19 -53 38 -92 18 -38 28 -69 23 -70 -26 -1 -83 -9
-101 -13 -11 -3 -36 -9 -56 -14 -20 -5 -41 -12 -47 -16 -14 -8 -21 15 -11 34
5 8 26 53 47 100 46 101 68 128 89 108 7 -8 15 -24 18 -37z m-601 20 c4 -5 -3
-7 -14 -4 -23 6 -26 13 -6 13 8 0 17 -4 20 -9z m880 -29 c14 -21 26 -43 26
-49 0 -6 4 -13 8 -15 9 -4 72 -125 72 -139 0 -6 -6 -7 -12 -2 -7 4 -17 8 -23
9 -5 1 -25 5 -44 9 -19 3 -39 9 -44 12 -5 3 -37 7 -71 9 -53 2 -61 5 -58 21 2
10 8 20 13 21 5 2 9 10 9 18 0 8 5 14 10 14 6 0 9 3 8 8 -2 8 39 89 55 108 18
20 22 18 51 -24z m-939 0 c-3 -3 -11 0 -18 7 -9 10 -8 11 6 5 10 -3 15 -9 12
-12z m712 -3 c34 -14 92 -18 99 -7 10 15 23 8 17 -9 -12 -32 -29 -43 -43 -30
-10 10 -10 7 -1 -11 9 -17 9 -26 -1 -40 -19 -25 -39 -26 -45 -2 -3 11 -10 20
-15 20 -5 0 -6 5 -3 10 3 6 1 10 -4 10 -6 0 -11 9 -11 20 0 11 -5 20 -11 20
-5 0 -8 4 -5 9 4 5 0 12 -6 14 -7 3 -10 6 -6 6 4 1 19 -4 35 -10z m1007 -5 c3
-8 2 -12 -4 -9 -6 3 -10 10 -10 16 0 14 7 11 14 -7z m-1599 -43 c-9 -8 -36
-10 -30 -2 2 4 11 8 20 8 8 0 13 -3 10 -6z m1612 -23 c4 -28 -6 -18 -12 12 -2
12 -1 20 2 16 4 -4 8 -16 10 -28z m-1817 -8 c8 -5 10 -10 4 -10 -12 0 -12 -36
1 -47 4 -5 5 -3 2 3 -7 13 55 5 64 -8 3 -5 13 -2 23 7 9 9 16 12 16 6 0 -5 -7
-17 -16 -26 -15 -15 -18 -15 -37 2 -11 10 -17 12 -12 4 6 -10 4 -12 -6 -5 -8
4 -26 7 -41 5 -26 -2 -28 -1 -25 38 2 44 4 46 27 31z m1714 -5 c11 -8 16 -15
10 -15 -5 0 -18 7 -28 15 -11 8 -16 15 -10 15 5 0 18 -7 28 -15z m-1650 -7
c-3 -4 -11 -5 -19 -1 -21 7 -19 12 4 10 11 0 18 -5 15 -9z m1761 -18 c3 -5 1
-10 -4 -10 -6 0 -11 5 -11 10 0 6 2 10 4 10 3 0 8 -4 11 -10z m-1130 -100 c3
-5 2 -10 -4 -10 -5 0 -13 5 -16 10 -3 6 -2 10 4 10 5 0 13 -4 16 -10z"/>
<path d="M1286 2522 c-3 -5 1 -9 9 -9 8 0 15 4 15 9 0 4 -4 8 -9 8 -6 0 -12
-4 -15 -8z"/>
<path d="M1810 2176 c0 -2 8 -10 18 -17 15 -13 16 -12 3 4 -13 16 -21 21 -21
13z"/>
<path d="M770 1961 c0 -5 7 -11 14 -14 10 -4 13 -1 9 9 -6 15 -23 19 -23 5z"/>
<path d="M746 1918 c3 -4 14 -6 24 -5 31 5 32 13 1 12 -16 0 -27 -3 -25 -7z"/>
<path d="M776 1738 c3 -5 10 -6 15 -3 13 9 11 12 -6 12 -8 0 -12 -4 -9 -9z"/>
<path d="M1235 1670 c-3 -5 -4 -13 -2 -17 3 -5 -1 -14 -9 -21 -10 -9 -14 -9
-14 -1 0 9 -3 9 -14 0 -10 -8 -16 -8 -25 2 -6 8 -10 16 -8 18 1 2 -3 -1 -9 -8
-6 -7 -16 -8 -24 -3 -9 6 -17 4 -22 -3 -5 -7 -8 -8 -8 -1 0 7 -27 9 -77 7 -43
-2 -85 -4 -95 -4 -22 -1 -48 -31 -54 -64 -3 -19 4 -38 26 -68 16 -22 30 -49
30 -59 0 -10 5 -18 11 -18 6 0 9 7 5 15 -5 13 -2 13 19 -1 14 -9 22 -21 19
-26 -4 -6 -10 -5 -15 3 -4 7 -11 10 -15 6 -9 -9 27 -37 39 -30 4 2 4 9 1 15
-5 7 -2 9 8 6 8 -4 21 -2 29 3 11 7 11 9 -3 9 -22 0 -74 45 -81 69 -3 14 0 17
14 14 11 -3 26 0 34 7 10 8 15 9 15 2 0 -6 -5 -14 -10 -17 -6 -4 2 -18 20 -35
16 -15 30 -35 30 -44 0 -19 22 -20 75 -1 21 8 41 12 44 10 2 -3 -1 -5 -7 -5
-7 0 -11 -3 -11 -7 1 -5 0 -11 -1 -15 -1 -5 -3 -12 -4 -18 0 -5 -10 -16 -21
-24 -19 -15 -19 -15 4 -11 34 6 46 22 65 79 15 44 15 51 1 72 -12 19 -13 24
-2 24 23 0 45 33 43 67 0 17 2 29 7 26 4 -2 6 9 5 26 -2 34 -4 36 -13 21z
m-128 -123 c19 0 39 -7 49 -18 14 -16 14 -19 3 -19 -8 0 -19 4 -25 10 -5 5
-26 10 -46 12 -21 1 -40 8 -42 15 -3 8 1 10 12 6 9 -4 31 -7 49 -6z m0 -57 c2
-19 -28 -44 -41 -35 -3 3 -2 0 3 -6 11 -14 49 9 57 33 6 22 18 23 33 4 9 -10
8 -16 -4 -26 -8 -7 -15 -9 -15 -5 0 4 -7 2 -15 -5 -8 -7 -15 -9 -15 -4 0 4 -5
3 -12 -4 -19 -19 -34 -14 -46 13 -7 14 -12 28 -12 30 0 8 25 1 31 -9 4 -5 12
1 18 13 14 26 16 26 18 1z"/>
<path d="M1609 1660 c-6 -4 -21 -6 -35 -4 -13 1 -24 -1 -24 -6 0 -4 -14 -6
-31 -4 -16 2 -28 0 -25 -4 3 -5 -1 -9 -9 -9 -8 0 -15 5 -15 11 0 6 -4 4 -10
-4 -5 -8 -12 -11 -16 -8 -4 4 -15 3 -25 -2 -13 -8 -20 -6 -28 7 -9 16 -10 15
-7 -6 1 -14 -1 -45 -6 -69 -6 -33 -4 -50 5 -61 8 -9 13 -31 12 -48 -1 -18 2
-33 6 -33 5 0 9 -6 9 -14 0 -12 43 -66 53 -66 2 0 4 7 4 15 0 8 -7 15 -14 15
-8 0 -11 5 -7 12 5 7 3 8 -5 3 -9 -5 -12 -1 -9 12 2 11 -4 28 -12 38 -14 17
-13 18 3 12 12 -4 20 -1 24 11 9 22 33 47 33 33 0 -12 28 -41 40 -41 5 0 7 6
4 14 -4 11 0 13 17 9 15 -4 26 0 35 12 13 18 14 18 14 -3 0 -22 -27 -42 -47
-35 -7 3 -10 -3 -6 -15 3 -13 14 -19 31 -20 56 0 56 0 37 -29 l-18 -26 32 22
c44 32 76 78 96 139 9 28 20 52 24 52 4 0 8 6 9 13 1 6 4 24 8 40 4 19 2 27
-7 28 -8 0 -23 2 -34 5 -41 8 -95 10 -106 4z m8 -126 c2 -6 -13 -10 -39 -8
-24 1 -49 -3 -57 -9 -11 -9 -12 -7 -9 8 2 12 10 19 21 17 9 -2 17 1 17 6 0 13
63 -1 67 -14z m53 -44 c-14 -25 -68 -63 -80 -55 -5 3 -10 1 -10 -6 0 -7 -3 -9
-7 -6 -3 4 3 17 14 30 11 12 22 29 25 37 3 8 20 16 37 17 28 2 30 0 21 -17z"/>
<path d="M1368 1493 c6 -2 9 -10 6 -15 -4 -7 -2 -8 5 -4 13 9 5 26 -12 25 -9
0 -8 -2 1 -6z"/>
<path d="M1446 1442 c-2 -4 -2 -12 2 -17 10 -14 52 -15 49 -1 -4 22 -40 35
-51 18z"/>
<path d="M1510 1424 c0 -8 5 -12 10 -9 6 3 10 10 10 16 0 5 -4 9 -10 9 -5 0
-10 -7 -10 -16z"/>
<path d="M1844 2046 c1 -8 5 -18 8 -22 4 -3 5 1 4 10 -1 8 -5 18 -8 22 -4 3
-5 -1 -4 -10z"/>
<path d="M1551 941 c-8 -6 -9 -11 -3 -15 6 -3 14 -1 17 5 9 14 2 20 -14 10z"/>
<path d="M1507 739 c7 -7 15 -10 18 -7 3 3 -2 9 -12 12 -14 6 -15 5 -6 -5z"/>
<path d="M1460 721 c0 -5 5 -13 10 -16 6 -3 10 -2 10 4 0 5 -4 13 -10 16 -5 3
-10 2 -10 -4z"/>
<path d="M1273 635 c0 -7 7 -11 15 -7 11 4 13 1 7 -8 -5 -9 -4 -11 3 -6 16 10
15 14 -6 25 -14 7 -19 6 -19 -4z"/>
<path d="M1236 293 c-6 -14 -5 -15 5 -6 7 7 10 15 7 18 -3 3 -9 -2 -12 -12z"/>
<path d="M595 1700 c-7 -12 2 -30 16 -30 12 0 12 27 0 35 -5 3 -12 1 -16 -5z"/>
<path d="M1982 1699 c2 -6 8 -10 13 -10 5 0 11 4 13 10 2 6 -4 11 -13 11 -9 0
-15 -5 -13 -11z"/>
<path d="M1879 433 c-13 -16 -12 -17 4 -4 16 13 21 21 13 21 -2 0 -10 -8 -17
-17z"/>
<path d="M211 327 c-13 -21 -12 -21 5 -5 10 10 16 20 13 22 -3 3 -11 -5 -18
-17z"/>
<path d="M2365 310 c-3 -6 1 -7 9 -4 18 7 21 14 7 14 -6 0 -13 -4 -16 -10z"/>
<path d="M253 295 c0 -8 4 -12 9 -9 5 3 6 10 3 15 -9 13 -12 11 -12 -6z"/>
<path d="M230 281 c0 -6 4 -13 10 -16 6 -3 7 1 4 9 -7 18 -14 21 -14 7z"/>
<path d="M305 284 c2 -4 0 -15 -6 -25 -7 -14 -6 -17 5 -13 14 5 16 29 3 39 -4
3 -5 2 -2 -1z"/>
<path d="M1919 173 c-12 -16 -12 -17 2 -6 9 7 20 9 24 5 5 -4 5 -1 1 6 -9 16
-11 15 -27 -5z"/>
<path d="M1915 110 c-4 -6 -11 -7 -17 -4 -7 4 -8 2 -4 -5 6 -9 11 -9 22 0 14
11 18 19 10 19 -3 0 -8 -5 -11 -10z"/>
<path d="M1930 59 c0 -5 5 -7 10 -4 6 3 10 8 10 11 0 2 -4 4 -10 4 -5 0 -10
-5 -10 -11z"/>
<path d="M1869 43 c-13 -16 -12 -17 4 -4 16 13 21 21 13 21 -2 0 -10 -8 -17
-17z"/>
</g>
</svg>
